<svg display="none" xmlns="http://www.w3.org/2000/svg">
    <symbol id="logo" viewBox="0 0 33 33">
        <path d="M15.5907 0.241409C15.8676 0.0832094 16.1811 0 16.5 0C16.8189 0 17.1324 0.0832094 17.4093 0.241409L23.9287 3.96491L16.5 8.11374L9.07133 3.96491L15.5907 0.241409ZM7.33333 7.19524V13.3406L1.54367 16.6497L9.1355 20.6904L14.6667 17.5334V11.2891L7.33333 7.19524ZM4.2069e-07 19.9809V26.9751C-0.000218676 27.2985 0.0851451 27.6163 0.247427 27.8961C0.409709 28.1759 0.643131 28.4078 0.924 28.5682L7.33333 32.2294V23.8877L4.2069e-07 19.9809ZM11 32.2294L16.5 29.0871L22 32.2294V23.8511L16.5 20.7087L11 23.8511V32.2294ZM25.6667 32.2294L32.076 28.5682C32.3569 28.4078 32.5903 28.1759 32.7526 27.8961C32.9149 27.6163 33.0002 27.2985 33 26.9751V19.9827L25.6667 23.8877V32.2294ZM31.4563 16.6497L25.6667 13.3406V7.19524L18.3333 11.2891V17.5316L23.8645 20.6904L31.4563 16.6497Z" fill="white"/>
    </symbol>
    <symbol id="phone" viewBox="0 0 20 22">
        <path fill-rule="evenodd" clip-rule="evenodd" d="M14.6877 19.9674C13.2477 19.9144 9.16674 19.3504 4.89274 15.0774C0.619742 10.8034 0.056742 6.72344 0.002742 5.28244C-0.077258 3.08644 1.60474 0.953444 3.54774 0.120444C3.78172 0.019411 4.03794 -0.0190554 4.29127 0.0088196C4.5446 0.0366946 4.78633 0.129953 4.99274 0.279444C6.59274 1.44544 7.69674 3.20944 8.64474 4.59644C8.85333 4.90117 8.94251 5.27199 8.8953 5.63824C8.84809 6.00449 8.66778 6.34057 8.38874 6.58244L6.43774 8.03144C6.34348 8.09951 6.27713 8.19947 6.25102 8.31277C6.2249 8.42606 6.24079 8.54498 6.29574 8.64744C6.73774 9.45044 7.52374 10.6464 8.42374 11.5464C9.32374 12.4464 10.5767 13.2844 11.4357 13.7764C11.5434 13.8369 11.6702 13.8538 11.79 13.8237C11.9098 13.7935 12.0135 13.7187 12.0797 13.6144L13.3497 11.6814C13.5832 11.3713 13.9277 11.1635 14.3109 11.1016C14.6942 11.0397 15.0865 11.1285 15.4057 11.3494C16.8127 12.3234 18.4547 13.4084 19.6567 14.9474C19.8184 15.1553 19.9212 15.4029 19.9544 15.6641C19.9877 15.9253 19.9501 16.1907 19.8457 16.4324C19.0087 18.3854 16.8907 20.0484 14.6877 19.9674Z" fill="black"/>
    </symbol>
    <symbol id="email" viewBox="0 0 20 19">
        <path d="M15.25 0H4.75C3.49022 0 2.28204 0.500445 1.39124 1.39124C0.500445 2.28204 0 3.49022 0 4.75V13.75C0 14.3738 0.122862 14.9915 0.361572 15.5677C0.600282 16.144 0.950164 16.6677 1.39124 17.1088C2.28204 17.9996 3.49022 18.5 4.75 18.5H15.25C16.509 18.4974 17.7156 17.9961 18.6058 17.1058C19.4961 16.2156 19.9974 15.009 20 13.75V4.75C19.9974 3.49103 19.4961 2.28439 18.6058 1.39416C17.7156 0.503936 16.509 0.00264212 15.25 0ZM11.6 8.32C11.108 8.60059 10.5514 8.74815 9.985 8.74815C9.41861 8.74815 8.862 8.60059 8.37 8.32L1.52 4.39C1.60857 3.5953 1.98701 2.86115 2.58292 2.32797C3.17883 1.79478 3.95038 1.5 4.75 1.5H15.25C16.049 1.50219 16.8194 1.79773 17.4148 2.3305C18.0103 2.86327 18.3893 3.59616 18.48 4.39L11.6 8.32Z" fill="black"/>
    </symbol>
    <symbol id="laboratory" viewBox="0 0 23 25">
        <path d="M7.61556 5.28098L9.64722 8.69293C6.35056 9.01907 3.83333 11.716 3.83333 14.9649C3.83333 16.6283 4.50645 18.2236 5.7046 19.3998C6.90274 20.576 8.52778 21.2368 10.2222 21.2368C12.8417 21.2368 15.0906 19.6939 16.0744 17.4737H12.7778V14.9649H23V17.4737H20.125C19.6085 19.4157 18.5141 21.1625 16.9817 22.4912H20.4444V25H0V22.4912H3.46278C2.37472 21.5497 1.50321 20.3916 0.906177 19.0939C0.309141 17.7963 0.000240218 16.3888 0 14.9649C0 10.4114 3.14333 6.43502 7.61556 5.28098ZM11.8067 0L12.7778 1.63071L13.8767 1.00351L18.3489 8.60512L13.915 11.1139L9.44278 3.51229L10.5544 2.8851L9.58333 1.25439L11.8067 0Z" fill="#222222"/>
    </symbol>
    <symbol id="crown" viewBox="0 0 31 26">
        <path d="M15.5 0C16.0118 0 16.4831 0.267222 16.7316 0.69748L20.5378 7.28582C20.8364 7.80272 21.2489 8.25082 21.746 8.59873C22.2432 8.94662 22.8133 9.18598 23.4166 9.30018C24.0197 9.41434 24.6414 9.40111 25.2385 9.26047C25.8356 9.11972 26.3946 8.85571 26.8746 8.48623L28.7103 7.07274C29.1726 6.71717 29.8173 6.67773 30.3231 6.97348C30.8289 7.26964 31.0887 7.83905 30.9726 8.39756L28.5012 20.2825C28.3516 21.0038 28.0323 21.6832 27.5682 22.2678C27.104 22.8522 26.5074 23.3275 25.8233 23.6561C22.6181 25.1977 19.0837 26 15.5 26C11.9163 26 8.38195 25.1964 5.17669 23.6548C4.49259 23.3262 3.89599 22.8522 3.43182 22.2678C3.02543 21.7559 2.72969 21.1715 2.56214 20.5499L2.49884 20.2825L0.0274122 8.39756C-0.0887323 7.83903 0.171038 7.26963 0.67692 6.97348C1.18271 6.67771 1.82738 6.7171 2.28968 7.07274L4.12674 8.48623C4.60672 8.85546 5.16454 9.11986 5.76152 9.26047C6.35849 9.40102 6.98042 9.41435 7.58344 9.30018C8.18659 9.1859 8.75693 8.94661 9.254 8.59873C9.75109 8.25081 10.1636 7.80269 10.4622 7.28582L14.2684 0.69748L14.3716 0.543955C14.6354 0.204543 15.0522 0 15.5 0ZM12.9254 8.6027C12.4277 9.46408 11.7406 10.2106 10.9122 10.7904C10.0837 11.3702 9.13361 11.7699 8.12837 11.9604C7.12321 12.1508 6.08645 12.1285 5.09137 11.8942C4.53915 11.7642 4.00855 11.5675 3.50751 11.3159L5.262 19.7518L5.3253 19.9861C5.40181 20.215 5.51821 20.4306 5.6707 20.6227C5.87402 20.8787 6.13614 21.0861 6.43579 21.2301L6.43717 21.2315C9.25098 22.5848 12.354 23.2895 15.5 23.2895C18.646 23.2895 21.749 22.5848 24.5628 21.2315L24.5642 21.2301C24.8639 21.0861 25.126 20.8787 25.3293 20.6227C25.5328 20.3664 25.6725 20.068 25.738 19.7518L27.4911 11.3159C26.9909 11.5669 26.4612 11.763 25.91 11.8929C24.9149 12.1275 23.8783 12.1506 22.873 11.9604C21.8675 11.7701 20.9165 11.3703 20.0878 10.7904C19.3629 10.2831 18.7463 9.64823 18.27 8.92034L18.0746 8.6027L15.5 4.14518L12.9254 8.6027ZM20.4924 16.4126C21.1846 16.0708 22.0345 16.3333 22.39 16.9989C22.7455 17.6647 22.4725 18.4821 21.7804 18.824C17.7184 20.8301 13.2816 20.8301 9.21959 18.824C8.52748 18.4821 8.25455 17.6647 8.60999 16.9989C8.96554 16.3333 9.81539 16.0708 10.5076 16.4126C13.7615 18.0195 17.2386 18.0195 20.4924 16.4126Z" fill="#222222"/>
    </symbol>
</svg>