<svg display="none" xmlns="http://www.w3.org/2000/svg">
    <symbol id="logo" viewBox="0 0 33 33">
        <path d="M15.5907 0.241409C15.8676 0.0832094 16.1811 0 16.5 0C16.8189 0 17.1324 0.0832094 17.4093 0.241409L23.9287 3.96491L16.5 8.11374L9.07133 3.96491L15.5907 0.241409ZM7.33333 7.19524V13.3406L1.54367 16.6497L9.1355 20.6904L14.6667 17.5334V11.2891L7.33333 7.19524ZM4.2069e-07 19.9809V26.9751C-0.000218676 27.2985 0.0851451 27.6163 0.247427 27.8961C0.409709 28.1759 0.643131 28.4078 0.924 28.5682L7.33333 32.2294V23.8877L4.2069e-07 19.9809ZM11 32.2294L16.5 29.0871L22 32.2294V23.8511L16.5 20.7087L11 23.8511V32.2294ZM25.6667 32.2294L32.076 28.5682C32.3569 28.4078 32.5903 28.1759 32.7526 27.8961C32.9149 27.6163 33.0002 27.2985 33 26.9751V19.9827L25.6667 23.8877V32.2294ZM31.4563 16.6497L25.6667 13.3406V7.19524L18.3333 11.2891V17.5316L23.8645 20.6904L31.4563 16.6497Z" fill="white"/>
    </symbol>
    <symbol id="phone" viewBox="0 0 20 22">
        <path fill-rule="evenodd" clip-rule="evenodd" d="M14.6877 19.9674C13.2477 19.9144 9.16674 19.3504 4.89274 15.0774C0.619742 10.8034 0.056742 6.72344 0.002742 5.28244C-0.077258 3.08644 1.60474 0.953444 3.54774 0.120444C3.78172 0.019411 4.03794 -0.0190554 4.29127 0.0088196C4.5446 0.0366946 4.78633 0.129953 4.99274 0.279444C6.59274 1.44544 7.69674 3.20944 8.64474 4.59644C8.85333 4.90117 8.94251 5.27199 8.8953 5.63824C8.84809 6.00449 8.66778 6.34057 8.38874 6.58244L6.43774 8.03144C6.34348 8.09951 6.27713 8.19947 6.25102 8.31277C6.2249 8.42606 6.24079 8.54498 6.29574 8.64744C6.73774 9.45044 7.52374 10.6464 8.42374 11.5464C9.32374 12.4464 10.5767 13.2844 11.4357 13.7764C11.5434 13.8369 11.6702 13.8538 11.79 13.8237C11.9098 13.7935 12.0135 13.7187 12.0797 13.6144L13.3497 11.6814C13.5832 11.3713 13.9277 11.1635 14.3109 11.1016C14.6942 11.0397 15.0865 11.1285 15.4057 11.3494C16.8127 12.3234 18.4547 13.4084 19.6567 14.9474C19.8184 15.1553 19.9212 15.4029 19.9544 15.6641C19.9877 15.9253 19.9501 16.1907 19.8457 16.4324C19.0087 18.3854 16.8907 20.0484 14.6877 19.9674Z" fill="black"/>
    </symbol>
    <symbol id="email" viewBox="0 0 20 19">
        <path d="M15.25 0H4.75C3.49022 0 2.28204 0.500445 1.39124 1.39124C0.500445 2.28204 0 3.49022 0 4.75V13.75C0 14.3738 0.122862 14.9915 0.361572 15.5677C0.600282 16.144 0.950164 16.6677 1.39124 17.1088C2.28204 17.9996 3.49022 18.5 4.75 18.5H15.25C16.509 18.4974 17.7156 17.9961 18.6058 17.1058C19.4961 16.2156 19.9974 15.009 20 13.75V4.75C19.9974 3.49103 19.4961 2.28439 18.6058 1.39416C17.7156 0.503936 16.509 0.00264212 15.25 0ZM11.6 8.32C11.108 8.60059 10.5514 8.74815 9.985 8.74815C9.41861 8.74815 8.862 8.60059 8.37 8.32L1.52 4.39C1.60857 3.5953 1.98701 2.86115 2.58292 2.32797C3.17883 1.79478 3.95038 1.5 4.75 1.5H15.25C16.049 1.50219 16.8194 1.79773 17.4148 2.3305C18.0103 2.86327 18.3893 3.59616 18.48 4.39L11.6 8.32Z" fill="black"/>
    </symbol>
    <symbol id="laboratory" viewBox="0 0 23 25">
        <path d="M7.61556 5.28098L9.64722 8.69293C6.35056 9.01907 3.83333 11.716 3.83333 14.9649C3.83333 16.6283 4.50645 18.2236 5.7046 19.3998C6.90274 20.576 8.52778 21.2368 10.2222 21.2368C12.8417 21.2368 15.0906 19.6939 16.0744 17.4737H12.7778V14.9649H23V17.4737H20.125C19.6085 19.4157 18.5141 21.1625 16.9817 22.4912H20.4444V25H0V22.4912H3.46278C2.37472 21.5497 1.50321 20.3916 0.906177 19.0939C0.309141 17.7963 0.000240218 16.3888 0 14.9649C0 10.4114 3.14333 6.43502 7.61556 5.28098ZM11.8067 0L12.7778 1.63071L13.8767 1.00351L18.3489 8.60512L13.915 11.1139L9.44278 3.51229L10.5544 2.8851L9.58333 1.25439L11.8067 0Z" fill="#222222"/>
    </symbol>
    <symbol id="crown" viewBox="0 0 31 26">
        <path d="M15.5 0C16.0118 0 16.4831 0.267222 16.7316 0.69748L20.5378 7.28582C20.8364 7.80272 21.2489 8.25082 21.746 8.59873C22.2432 8.94662 22.8133 9.18598 23.4166 9.30018C24.0197 9.41434 24.6414 9.40111 25.2385 9.26047C25.8356 9.11972 26.3946 8.85571 26.8746 8.48623L28.7103 7.07274C29.1726 6.71717 29.8173 6.67773 30.3231 6.97348C30.8289 7.26964 31.0887 7.83905 30.9726 8.39756L28.5012 20.2825C28.3516 21.0038 28.0323 21.6832 27.5682 22.2678C27.104 22.8522 26.5074 23.3275 25.8233 23.6561C22.6181 25.1977 19.0837 26 15.5 26C11.9163 26 8.38195 25.1964 5.17669 23.6548C4.49259 23.3262 3.89599 22.8522 3.43182 22.2678C3.02543 21.7559 2.72969 21.1715 2.56214 20.5499L2.49884 20.2825L0.0274122 8.39756C-0.0887323 7.83903 0.171038 7.26963 0.67692 6.97348C1.18271 6.67771 1.82738 6.7171 2.28968 7.07274L4.12674 8.48623C4.60672 8.85546 5.16454 9.11986 5.76152 9.26047C6.35849 9.40102 6.98042 9.41435 7.58344 9.30018C8.18659 9.1859 8.75693 8.94661 9.254 8.59873C9.75109 8.25081 10.1636 7.80269 10.4622 7.28582L14.2684 0.69748L14.3716 0.543955C14.6354 0.204543 15.0522 0 15.5 0ZM12.9254 8.6027C12.4277 9.46408 11.7406 10.2106 10.9122 10.7904C10.0837 11.3702 9.13361 11.7699 8.12837 11.9604C7.12321 12.1508 6.08645 12.1285 5.09137 11.8942C4.53915 11.7642 4.00855 11.5675 3.50751 11.3159L5.262 19.7518L5.3253 19.9861C5.40181 20.215 5.51821 20.4306 5.6707 20.6227C5.87402 20.8787 6.13614 21.0861 6.43579 21.2301L6.43717 21.2315C9.25098 22.5848 12.354 23.2895 15.5 23.2895C18.646 23.2895 21.749 22.5848 24.5628 21.2315L24.5642 21.2301C24.8639 21.0861 25.126 20.8787 25.3293 20.6227C25.5328 20.3664 25.6725 20.068 25.738 19.7518L27.4911 11.3159C26.9909 11.5669 26.4612 11.763 25.91 11.8929C24.9149 12.1275 23.8783 12.1506 22.873 11.9604C21.8675 11.7701 20.9165 11.3703 20.0878 10.7904C19.3629 10.2831 18.7463 9.64823 18.27 8.92034L18.0746 8.6027L15.5 4.14518L12.9254 8.6027ZM20.4924 16.4126C21.1846 16.0708 22.0345 16.3333 22.39 16.9989C22.7455 17.6647 22.4725 18.4821 21.7804 18.824C17.7184 20.8301 13.2816 20.8301 9.21959 18.824C8.52748 18.4821 8.25455 17.6647 8.60999 16.9989C8.96554 16.3333 9.81539 16.0708 10.5076 16.4126C13.7615 18.0195 17.2386 18.0195 20.4924 16.4126Z" fill="#222222"/>
    </symbol>
    <symbol id="rubl" viewBox="0 0 32 32">
        <path fill-rule="evenodd" clip-rule="evenodd" d="M16 32C7.16333 32 0 24.8367 0 16C0 7.16333 7.16333 0 16 0C24.8367 0 32 7.16333 32 16C32 24.8367 24.8367 32 16 32ZM14.1467 10.554H16.3733C18.4193 10.554 19.4473 11.6253 19.4473 13.3213C19.4473 15.028 18.4193 16.11 16.362 16.11H14.1467V10.554ZM16.9453 18.0187C19.8927 18.0187 21.8333 16.0253 21.8333 13.3107C21.8333 10.586 19.9353 8.57133 17.02 8.57133H11.8033V16.81H9.71333V18.0187H11.8027V20.0753H9.71333V21.2733H11.8027V23.5847H14.1453V21.2733H18.3973V20.0753H14.1453V18.0187H16.9453Z" fill="#222222"/>
    </symbol>
    <symbol id="futurepay" viewBox="0 0 36 37">
        <path d="M32.6448 19.0714C32.473 19.0714 32.1294 19.2433 31.9576 19.4151L30.2394 21.1332L33.8475 24.7413L35.5657 23.0232C35.9093 22.6796 35.9093 21.9923 35.5657 21.6487L33.3321 19.4151C33.1603 19.2433 32.9884 19.0714 32.6448 19.0714ZM29.3803 22.1641L18.8996 32.473V36.0811H22.5077L32.9884 25.6004L29.3803 22.1641ZM15.4633 34.1912C6.70078 33.3321 0 25.944 0 17.1815C0 7.73167 7.73167 0 17.1815 0C26.2877 0 33.6757 7.04441 34.363 15.9788C33.8475 15.807 33.3321 15.6351 32.6448 15.6351C31.2703 15.6351 30.2394 16.3224 29.5522 17.0097L24.9131 21.6487L18.0406 17.5251V8.59074H15.4633V18.8996L23.0232 23.5386L15.4633 31.0985V34.1912Z" fill="#222222"/>
    </symbol>
    <symbol id="gost" viewBox="0 0 35 26">
        <path d="M35 9.4944H25.683V12.176H27.923V15.8464H32.76V12.176H35V9.4944Z" fill="black"/>
<path d="M21.378 6.1952C24.1255 6.1952 27.734 7.1712 30.268 8.6912V3.4368C26.2815 1.3056 21.2765 0 16.8035 0C5.2045 0 0 5.632 0 12.5792C0 19.5296 5.1625 25.1616 16.807 25.1616C21.2765 25.1616 26.2815 23.856 30.2715 21.7248V16.7424C27.93 18.1504 24.577 19.0464 21.3815 19.0464C17.5455 19.0464 14.4375 16.1696 14.4375 12.6208C14.4375 9.072 17.5455 6.1952 21.378 6.1952ZM8.309 14.3776C7.9345 14.3776 7.574 14.336 7.224 14.2656V11.6704C7.5425 11.84 7.9135 11.9424 8.309 11.9424C9.4955 11.9424 10.4545 11.0624 10.4545 9.9808C10.4545 8.8992 9.492 8.0192 8.309 8.0192C7.126 8.0192 6.1565 8.8992 6.1565 9.9808C6.1565 9.9808 6.1565 17.584 6.1565 19.6448C4.0775 19.6448 3.493 17.8112 3.493 17.8112V9.9744C3.493 7.5424 5.649 5.5744 8.3055 5.5744C10.9655 5.5744 13.118 7.5456 13.118 9.9744C13.125 12.4064 10.969 14.3776 8.309 14.3776Z" fill="#222222"/>
    </symbol>
    <symbol id="whatsapp" viewBox="0 0 36 36">
        <path fill-rule="evenodd" clip-rule="evenodd" d="M18 0C8.0586 0 0 8.05859 0 18C0 21.402 0.945 24.588 2.5884 27.3023L0.9828 32.7599C0.890612 33.0733 0.884546 33.4057 0.96524 33.7222C1.04593 34.0387 1.21041 34.3276 1.44137 34.5586C1.67233 34.7895 1.96125 34.954 2.27775 35.0347C2.59425 35.1154 2.92665 35.1093 3.24 35.0171L8.6976 33.4115C11.5033 35.1088 14.7208 36.0041 18 35.9999C27.9414 35.9999 36 27.9413 36 18C36 8.05859 27.9414 0 18 0ZM13.9284 22.0734C17.5698 25.713 21.0456 26.1936 22.2732 26.2386C24.1398 26.3069 25.9578 24.8814 26.6652 23.2272C26.7537 23.0212 26.7858 22.7954 26.7579 22.5729C26.7301 22.3505 26.6434 22.1395 26.5068 21.9618C25.5204 20.7018 24.1866 19.7964 22.8834 18.8964C22.6115 18.7078 22.277 18.632 21.9503 18.6851C21.6236 18.7381 21.3303 18.9158 21.132 19.1808L20.052 20.8278C19.9949 20.916 19.9065 20.9792 19.8045 21.0046C19.7026 21.03 19.5948 21.0157 19.503 20.9646C18.7704 20.5452 17.703 19.8324 16.9362 19.0656C16.1694 18.2988 15.4998 17.28 15.1236 16.5942C15.0781 16.5068 15.0652 16.406 15.0873 16.31C15.1094 16.214 15.1651 16.129 15.2442 16.0704L16.9074 14.8356C17.1454 14.6296 17.2991 14.3431 17.339 14.0309C17.3788 13.7187 17.3021 13.4027 17.1234 13.1436C16.317 11.9628 15.3774 10.4616 14.0148 9.46618C13.8386 9.33957 13.6326 9.26061 13.4169 9.23696C13.2012 9.21331 12.9831 9.24576 12.7836 9.33118C11.1276 10.0404 9.6948 11.8584 9.7632 13.7286C9.8082 14.9562 10.2888 18.432 13.9284 22.0734Z" fill="#222222"/>
    </symbol>
    <symbol id="tg" viewBox="0 0 36 36">
        <path fill-rule="evenodd" clip-rule="evenodd" d="M18 2.11765C13.7877 2.11765 9.748 3.79096 6.76948 6.76948C3.79096 9.748 2.11765 13.7877 2.11765 18C2.11765 22.2123 3.79096 26.252 6.76948 29.2305C9.748 32.209 13.7877 33.8824 18 33.8824C22.2123 33.8824 26.252 32.209 29.2305 29.2305C32.209 26.252 33.8824 22.2123 33.8824 18C33.8824 13.7877 32.209 9.748 29.2305 6.76948C26.252 3.79096 22.2123 2.11765 18 2.11765ZM0 18C0 8.05892 8.05892 0 18 0C27.9411 0 36 8.05892 36 18C36 27.9411 27.9411 36 18 36C8.05892 36 0 27.9411 0 18Z" fill="#222222"/>
<path fill-rule="evenodd" clip-rule="evenodd" d="M18 34.9414C27.3566 34.9414 34.9412 27.3569 34.9412 18.0003C34.9412 8.64365 27.3566 1.05908 18 1.05908C8.64337 1.05908 1.05881 8.64365 1.05881 18.0003C1.05881 27.3569 8.64337 34.9414 18 34.9414ZM26.0335 12.3233L24.0717 24.8852C24.0447 25.0584 23.9751 25.2222 23.8691 25.3619C23.7632 25.5016 23.6242 25.6129 23.4646 25.6856C23.3051 25.7583 23.13 25.7903 22.955 25.7786C22.7801 25.7669 22.6108 25.712 22.4623 25.6187L15.8925 21.502C15.756 21.4164 15.6409 21.3008 15.5559 21.1639C15.4708 21.0271 15.4181 20.8727 15.4018 20.7124C15.3855 20.5522 15.4059 20.3903 15.4616 20.2391C15.5173 20.0879 15.6067 19.9515 15.7231 19.8401L21.1748 14.612C21.2341 14.5544 21.1612 14.4596 21.0901 14.5019L13.1887 19.2336C12.719 19.5177 12.1601 19.6162 11.6216 19.5097L8.75857 18.9557C7.72855 18.7558 7.58455 17.3396 8.55528 16.938L23.8599 10.6105C24.1203 10.5034 24.4045 10.4674 24.6833 10.5061C24.9622 10.5449 25.2257 10.657 25.447 10.8311C25.6683 11.0052 25.8394 11.2349 25.9427 11.4968C26.0461 11.7587 26.078 12.0433 26.0352 12.3216" fill="#222222"/>
    </symbol>
    <symbol id="max" viewBox="0 0 14 14 ">
        <path fill-rule="evenodd" clip-rule="evenodd" d="M7.1504 13.96C5.77648 13.96 5.13799 13.7586 4.02817 12.9528C3.32616 13.8593 1.10316 14.5677 1.0062 13.3557C1.0062 12.4459 0.80563 11.677 0.578313 10.8377C0.307547 9.80359 0 8.652 0 6.98339C0 2.99815 3.25597 0 7.11364 0C10.9746 0 14 3.14588 14 7.02031C14.0129 10.8348 10.9484 13.9397 7.1504 13.96ZM7.20724 3.44468C5.32855 3.34733 3.86436 4.65335 3.5401 6.70137C3.27267 8.39686 3.74736 10.4616 4.15185 10.5691C4.34573 10.6161 4.8338 10.2199 5.13799 9.91439C5.64101 10.2634 6.22677 10.473 6.83619 10.5221C8.78282 10.6161 10.4462 9.12771 10.5768 7.17477C10.6529 5.21768 9.15414 3.56005 7.20724 3.44805V3.44468Z" fill="white"/>
    </symbol>
</svg>